<svg style="height: 512px; width: 512px;" xmlns="http://www.w3.org/2000/svg" viewBox="0 0 512 512">
<path d="M0 0h512v512H0z" fill="#ffffff" fill-opacity="1"></path>
<g class="" style="touch-action: none;" transform="translate(0,0)">
<g><path d="M112 144.836L103 192.836L103 279L121 279L121 192.836L112 144.836Z" class="selected" fill="#417505" fill-opacity="1"></path><path d="M148 144.836L139 192.836L139 279L157 279L157 192.836L148 144.836Z" class="" fill="#417505" fill-opacity="1"></path><path d="M364 144.836L355 192.836L355 279L373 279L373 192.836L364 144.836Z" class="" fill="#000000" fill-opacity="1"></path><path d="M400 144.836L391 192.836L391 279L409 279L409 192.836L400 144.836Z" class="" fill="#417505" fill-opacity="1"></path><path d="M40 208.836L31 256.836L31 279L49 279L49 256.836L40 208.836Z" class="" fill="#417505" fill-opacity="1"></path><path d="M76 208.836L67 256.836L67 279L85 279L85 256.836L76 208.836Z" class="" fill="#417505" fill-opacity="1"></path><path d="M184 208.836L175 256.836L175 279L193 279L193 256.836L184 208.836Z" class="" fill="#417505" fill-opacity="1"></path><path d="M220 208.836L211 256.836L211 279L229 279L229 256.836L220 208.836Z" class="" fill="#417505" fill-opacity="1"></path><path d="M256 208.836L247 256.836L247 279L265 279L265 256.836L256 208.836Z" class="" fill="#417505" fill-opacity="1"></path><path d="M292 208.836L283 256.836L283 279L301 279L301 256.836L292 208.836Z" class="" fill="#417505" fill-opacity="1"></path><path d="M328 208.836L319 256.836L319 279L337 279L337 256.836L328 208.836Z" class="" fill="#417505" fill-opacity="1"></path><path d="M436 208.836L427 256.836L427 279L445 279L445 256.836L436 208.836Z" class="" fill="#417505" fill-opacity="1"></path><path d="M472 208.836L463 256.836L463 279L481 279L481 256.836L472 208.836Z" class="" fill="#417505" fill-opacity="1"></path><path d="M18 297L18 313L156.96 313L156.96 297L18 297Z" class="" fill="#417505" fill-opacity="1"></path><path d="M174.96 297L174.96 313L336.965 313L336.965 297L174.96 297Z" class="" fill="#417505" fill-opacity="1"></path><path d="M354.965 297L354.965 313L494 313L494 297L354.965 297Z" class="" fill="#417505" fill-opacity="1"></path><path d="M31 331L31 487L49 487L49 331L31 331Z" class="" fill="#417505" fill-opacity="1"></path><path d="M67 331L67 487L85 487L85 331L67 331Z" class="" fill="#417505" fill-opacity="1"></path><path d="M103 331L103 487L121 487L121 331L103 331Z" class="" fill="#417505" fill-opacity="1"></path><path d="M139 331L139 487L157 487L157 331L139 331Z" class="" fill="#417505" fill-opacity="1"></path><path d="M175 331L175 487L193 487L193 331L175 331Z" class="" fill="#417505" fill-opacity="1"></path><path d="M211 331L211 487L229 487L229 331L211 331Z" class="" fill="#417505" fill-opacity="1"></path><path d="M247 331L247 487L265 487L265 331L247 331Z" class="" fill="#417505" fill-opacity="1"></path><path d="M283 331L283 487L301 487L301 331L283 331Z" class="" fill="#417505" fill-opacity="1"></path><path d="M319 331L319 487L337 487L337 331L319 331Z" class="" fill="#417505" fill-opacity="1"></path><path d="M355 331L355 487L373 487L373 331L355 331Z" class="" fill="#417505" fill-opacity="1"></path><path d="M391 331L391 487L409 487L409 331L391 331Z" class="" fill="#417505" fill-opacity="1"></path><path d="M427 331L427 487L445 487L445 331L427 331Z" class="" fill="#417505" fill-opacity="1"></path><path d="M463 331L463 487L481 487L481 331L463 331Z" class="" fill="#417505" fill-opacity="1"></path></g></g></svg>